<?xml version="1.0" encoding="utf-8"?>
<!-- Generator: Adobe Illustrator 19.0.0, SVG Export Plug-In . SVG Version: 6.00 Build 0)  -->
<svg version="1.1" id="Layer_1" xmlns="http://www.w3.org/2000/svg" xmlns:xlink="http://www.w3.org/1999/xlink" x="0px" y="0px"
	 width="25.1px" height="32px" viewBox="0 0 25.1 32" style="enable-background:new 0 0 25.1 32;" xml:space="preserve">
<g id="OPt-2_1_">
	<g id="prog2_pro3_Mobile-Portrait_opt2-Copy-2_1_" transform="translate(-10.000000, -15.000000)">
		<g id="nav_1_">
			<g id="Group-6_1_">
				<g id="ic_home_11_" transform="translate(14.000000, 17.000000)">
					<g id="Group_11_" transform="translate(9.600000, 12.000000) scale(-1, 1) translate(-9.600000, -12.000000) ">
						<path id="Shape_33_" d="M-0.1,7.1l1.2,0.9L3,9.6c0.3-1.3,1-2.4,2-3.1L1.4,3.6l1.1-1.5c0.5-0.6,0.4-1.5-0.3-2l-2.8,3.7
							C-0.9,4.3-1.1,5-1,5.6C-0.9,6.2-0.6,6.8-0.1,7.1L-0.1,7.1z"/>
						<path id="Shape_32_" d="M11.6,20.1c-4.1-2.2-7.8-2.8-8.7-1.3C2.1,20,3.4,22.3,6,24.7l-2.4,3.9H1.9c-0.8,0-1.4,0.6-1.4,1.4h2.1
							h2.8l0.9-1.4l1.4-2.3l0.5-0.9C8.1,25.1,8,24.7,8,24.3c0-1.2,0.9-2.1,2.1-2.1c0.1,0,0.1,0,0.2,0L11.6,20.1L11.6,20.1z"/>
						<path id="Shape_31_" d="M23.2,6.6c-0.2-1.1-1.1-1.8-2.2-1.8c-0.3,0-0.6,0.1-0.9,0.2c-0.8,0.4-1.4,1.2-1.4,2.1v11
							c0,0.8-0.6,1.4-1.4,1.4c-0.6,0-1-0.3-1.3-0.8c0,0,0-0.1-0.1-0.1l-1.3-3.3l2.5-8.6c0,0,0,0,0,0c0-0.1,0.1-0.2,0.1-0.3
							C18.1,3,16.5-0.6,13.4-2L7.5,0.1C6.8,0.3,6.4,1.1,6.6,1.9l1.5-0.5C8.7,1.1,9.4,1.4,9.6,2c0.2,0.6-0.1,1.3-0.7,1.5L7.3,4.1
							c0.3,0.7,1.1,1.1,1.8,0.8l1.6-0.6c0.1,0.7-0.3,1.3-0.9,1.6L6.7,7c-1.3,0.6-2.3,1.9-2.3,3.4c0,0.1,0,0.1,0,0.2c0,0,0,0.1,0,0.1
							c0,0,0,0,0,0h-4.9V8.8c0-0.5-0.7-1-1.1-1.2l-0.3-0.2V12c0,1.3,1.1,2.4,2.4,2.4H6c0.5,0,1,0.1,1.4,0.2c0,0,0,0-0.1,0
							c0,0,0,0,0.1,0c0,0,0,0,0,0c2.5,0.6,4.3,2.8,4.6,5.4c0,0,0,0.1,0,0.1c0,0.2,0,0.3,0,0.5c0,1.5-0.5,2.8-1.4,3.9
							c-0.1,0.1-0.1,0.2-0.2,0.2c-0.2,0.3-0.3,0.6-0.3,0.9c0,0.9,0.7,1.5,1.5,1.5c0.3,0,0.6-0.1,0.8-0.2l3.1-1.9
							c0.4,0.2,0.7,0.7,0.7,1.2c0,0.4-0.1,0.7-0.3,0.9l-1.3,1.4h-1.6h0h-0.1c-0.8,0-1.4,0.6-1.4,1.4h2.8h0h1.7
							c0-1.3,1.1-2.4,2.4-2.4v-4.1c-1.1-0.2-1.9-1.2-1.9-2.4c0-0.1,0-0.1,0-0.2c0.1,0,0.3,0,0.4,0c0.5,0,1-0.2,1.5-0.4
							C19.5,20,20,19.1,20,18v-11c0-0.5,0.4-0.9,0.9-0.9c0.5,0,0.9,0.4,0.9,0.9c-0.6,0.4-1,1.2-1,2c0,1.3,1.1,2.4,2.4,2.4V7.1
							C23.2,6.9,23.2,6.8,23.2,6.6L23.2,6.6z"/>
					</g>
				</g>
			</g>
		</g>
	</g>
</g>
</svg>
